<?xml version="1.0" standalone="no"?>
<!DOCTYPE svg PUBLIC "-//W3C//DTD SVG 20010904//EN"
 "http://www.w3.org/TR/2001/REC-SVG-20010904/DTD/svg10.dtd">
<svg version="1.0" xmlns="http://www.w3.org/2000/svg"
 width="512.000000pt" height="512.000000pt" viewBox="0 0 512.000000 512.000000"
 preserveAspectRatio="xMidYMid meet">
<metadata>
Created by potrace 1.11, written by Peter Selinger 2001-2013
</metadata>
<g transform="translate(0.000000,512.000000) scale(0.100000,-0.100000)"
fill="#000000" stroke="none">
<path d="M257 4889 c-96 -23 -182 -94 -226 -188 -25 -54 -26 -61 -26 -246 0
-163 3 -197 19 -240 24 -62 95 -139 161 -173 50 -27 51 -27 302 -30 l252 -3
-34 -35 -35 -35 0 -320 0 -321 33 -33 34 -34 -241 -3 -242 -3 -66 -33 c-73
-36 -124 -87 -160 -161 -22 -45 -23 -55 -23 -356 l0 -310 27 -57 c29 -62 92
-130 148 -158 71 -36 131 -40 573 -40 402 0 430 -1 408 -16 -71 -50 -56 -164
26 -195 15 -5 678 -9 1695 -9 1666 0 1670 0 1707 -21 20 -11 48 -36 61 -56 23
-33 25 -46 25 -143 0 -99 -2 -109 -27 -147 -49 -75 -35 -73 -592 -73 l-496 0
0 85 c0 47 3 85 8 85 63 1 352 23 401 31 112 18 101 25 -65 47 -106 13 -229
16 -689 16 -527 0 -650 -4 -792 -30 -38 -7 -43 -19 -10 -28 26 -6 216 -23 370
-32 l107 -6 0 -84 0 -84 -855 -2 -855 -3 -31 -32 c-27 -26 -32 -39 -32 -77 0
-49 12 -69 58 -98 29 -18 22 -18 -372 -18 l-401 0 -31 -31 -31 -31 0 -432 c0
-421 1 -434 20 -459 12 -15 38 -31 58 -37 51 -14 4233 -14 4284 0 20 6 46 22
58 37 19 25 20 38 20 459 l0 432 -29 30 -30 29 68 7 c157 14 261 89 311 224
19 51 21 73 18 236 -3 171 -4 184 -29 236 -48 102 -142 172 -256 190 -32 6
-244 10 -472 10 l-415 0 27 28 c36 37 43 81 22 125 -34 72 103 67 -1751 67
l-1668 0 -31 21 c-36 25 -66 68 -86 124 -21 60 -18 326 4 383 23 60 53 99 90
120 30 16 137 17 1710 18 l1677 1 30 28 c52 50 49 117 -7 169 l-28 26 557 0
558 0 32 29 33 29 3 313 c3 335 1 354 -47 386 -24 17 -66 18 -579 21 l-554 3
26 20 c14 11 31 37 37 58 9 32 8 44 -6 75 -34 71 105 66 -1750 66 -1840 0
-1704 -5 -1759 60 -35 43 -49 101 -44 191 5 87 26 132 78 166 l33 23 1674 0
c1421 0 1679 2 1708 14 88 37 94 161 10 201 -29 13 -230 15 -1842 14 -1013 -1
-1825 -5 -1846 -10z"/>
<path d="M2890 4549 c-138 -7 -310 -26 -319 -35 -37 -36 416 -61 1037 -56
l182 2 0 44 c0 31 -5 46 -16 50 -22 8 -705 5 -884 -5z"/>
<path d="M3355 2879 c-228 -12 -360 -36 -293 -52 65 -16 263 -29 528 -36 162
-4 298 -6 303 -4 4 2 7 26 7 54 l0 49 -202 -1 c-112 -1 -266 -5 -343 -10z"/>
<path d="M1375 2713 c-105 -5 -287 -24 -309 -33 -20 -8 -20 -8 4 -18 70 -27
304 -37 830 -36 432 0 560 3 664 17 164 20 178 30 70 47 -126 20 -396 30 -789
28 -225 -1 -437 -3 -470 -5z"/>
<path d="M3892 2670 c0 -19 2 -27 5 -17 2 9 2 25 0 35 -3 9 -5 1 -5 -18z"/>
<path d="M3465 2549 c-289 -11 -452 -31 -418 -52 29 -18 471 -46 726 -47 l127
0 0 55 0 55 -117 -2 c-65 0 -208 -5 -318 -9z"/>
</g>
</svg>
